<svg xmlns="http://www.w3.org/2000/svg" width="425.197" height="85.467" viewBox="0 0 425.197 85.467">
  <g id="logo" transform="translate(-152.401 -215.267)">
    <g id="グループ_1" data-name="グループ 1">
      <path id="パス_1" data-name="パス 1" d="M325.8,276.385c0-.138-.164-.186-.429-.186-.449,0-2.006.065-2.529.065-.683,0-1.447-.065-2.225-.065-.284,0-.407.048-.407.2s.215.2.43.239a.573.573,0,0,1,.5.6,3.144,3.144,0,0,1-.332,1.232c-.334.732-3.313,5.942-3.551,6.516-.38-.67-3.692-6.381-4.025-7.09a2.151,2.151,0,0,1-.282-.8.425.425,0,0,1,.332-.428c.355-.094.517-.119.517-.266s-.113-.2-.35-.2c-1.071,0-2.041.065-2.532.065-.786,0-2.555-.065-2.983-.065-.288,0-.451.065-.451.2,0,.172.163.218.355.218a2.472,2.472,0,0,1,.995.309,5.824,5.824,0,0,1,1.634,1.729c.824,1.225,4,6.442,4.167,6.819a4.983,4.983,0,0,1,.542,2.486v1.94c0,.38,0,1.377-.072,2.372-.046.693-.257,1.2-.731,1.307a4.174,4.174,0,0,1-.834.089c-.257,0-.378.065-.378.2,0,.184.191.224.525.224.879,0,2.363-.065,2.957-.065.639,0,2.133.065,3.621.065.31,0,.492-.065.492-.224,0-.131-.115-.2-.371-.2a10.818,10.818,0,0,1-1.181-.089c-.716-.108-.925-.614-.981-1.307-.063-.995-.063-1.992-.063-2.372v-1.94a5.7,5.7,0,0,1,.351-2.364,75.589,75.589,0,0,1,4.524-7.532,3.542,3.542,0,0,1,1.276-1.162,2.5,2.5,0,0,1,1.038-.285C325.611,276.621,325.8,276.55,325.8,276.385Z" fill="#595959"/>
      <path id="パス_2" data-name="パス 2" d="M340.81,278.872c-.808,0-2.208.044-2.443.044-.019,0-1.419-.044-2.481-.044-.282,0-.43.044-.43.191s.123.222.359.222a4.138,4.138,0,0,1,.757.063c.659.183.829.4.879,1.085.021.642.046,1.2.046,4.26v2.542c0,2.055-.046,3.8-1.208,4.893A3.959,3.959,0,0,1,333.5,293.2a4.093,4.093,0,0,1-2.629-.8c-1.019-.815-1.584-1.946-1.584-4.882v-2.824c0-3.056,0-3.618.037-4.26.055-.707.224-1,.766-1.085a3.3,3.3,0,0,1,.616-.063c.209,0,.334-.083.334-.222s-.144-.191-.459-.191c-.752,0-2.152.044-2.667.044-.618,0-2.016-.044-3.128-.044-.309,0-.444.044-.444.191s.11.222.348.222a4.329,4.329,0,0,1,.808.063c.663.183.853.378.893,1.085.058.642.029,1.2.029,4.26v2.966c0,2.906.826,4.4,1.894,5.331a7.219,7.219,0,0,0,4.76,1.364,6.507,6.507,0,0,0,4.4-1.446c1.753-1.439,1.98-3.8,1.98-6.056v-2.159c0-3.056.029-3.618.056-4.26.044-.707.19-1,.758-1.085a3.34,3.34,0,0,1,.617-.063c.232,0,.348-.083.348-.222S341.094,278.872,340.81,278.872Z" fill="#595959"/>
      <path id="パス_3" data-name="パス 3" d="M372.26,293.672a4.772,4.772,0,0,1-.773-.069c-.374-.077-.974-.339-1.778-2.159-1.333-3.059-4.805-11.3-5.3-12.407-.218-.455-.307-.64-.622-.64-.209,0-.371.229-.614.8l-5.446,12.667a3.369,3.369,0,0,1-.916,1.42,11.252,11.252,0,0,1-2.606-2.037c-.8-.756-4.9-5.012-5.638-5.964.639-.736,3.742-3.67,4.409-4.287a6.248,6.248,0,0,1,2.2-1.49,4.056,4.056,0,0,1,1.2-.226c.188,0,.3-.083.3-.222s-.14-.191-.351-.191c-.638,0-1.794.044-2.436.044-.57,0-1.706-.044-2.152-.044-.213,0-.334.044-.334.191,0,.116.1.158.282.222a.356.356,0,0,1,.288.393c0,.35-.449.817-1.047,1.492s-3.636,3.664-4.357,4.43h-.088v-.907c0-3.056,0-3.618.019-4.26.05-.707.208-1,.79-1.085a3.181,3.181,0,0,1,.587-.063c.165,0,.283-.083.283-.222s-.141-.191-.448-.191c-.691,0-2.174.044-2.675.044s-1.828-.044-2.913-.044c-.3,0-.471.044-.471.191s.141.222.352.222a4.45,4.45,0,0,1,.833.063c.661.183.845.4.9,1.085.029.642.029,1.2.029,4.26v3.558c0,1.845,0,3.439-.1,4.282-.067.586-.188.964-.616,1.07a2.981,2.981,0,0,1-.73.069c-.259,0-.334.117-.334.211,0,.144.142.209.407.209.82,0,2.156-.065,2.625-.065.524,0,2.007.065,3.169.065.238,0,.4-.065.4-.209a.272.272,0,0,0-.29-.211,7.327,7.327,0,0,1-1-.069c-.526-.106-.721-.484-.765-1.047-.044-.866-.044-2.46-.044-4.3v-1.825h.088l.221.283c.45.618,4.449,5.267,5.352,6.035a4.318,4.318,0,0,0,2.691,1.308c.223.019.428.029.652.034.016,0,.02.006.037.006l.248,0c.154,0,.317,0,.508,0H358.1a1.022,1.022,0,0,0,.4-.054c.583.019,1.249.054,1.761.054.21,0,.331-.04.331-.209,0-.118-.046-.211-.315-.211h-.3c-.637,0-.825-.215-.825-.573a3.653,3.653,0,0,1,.3-1.23l1.119-2.691c.041-.125.064-.153.187-.153h4.9a.2.2,0,0,1,.211.153l1.609,4.052a.312.312,0,0,1-.19.442c-.213.019-.254.093-.254.211,0,.144.232.144.607.169,1.761.04,3.267.04,4,.04.776,0,.906-.04.906-.209C372.552,293.737,372.447,293.672,372.26,293.672Zm-7.049-5.754h-4.023c-.073,0-.121-.046-.073-.146l2.011-5.089c.025-.07.048-.186.124-.186.041,0,.064.116.089.186L365.3,287.8C365.332,287.872,365.3,287.918,365.211,287.918Z" fill="#595959"/>
      <path id="パス_4" data-name="パス 4" d="M385.465,283.3l-.657-.494c-1.959-1.5-2.512-2.331-2.512-3.416,0-1.423,1.064-2.435,2.821-2.435a2.978,2.978,0,0,1,2.579,1.157,2.911,2.911,0,0,1,.618,1.566c0,.286.077.424.238.424.183,0,.263-.184.263-.712,0-1.845.091-2.53.091-2.84,0-.165-.115-.235-.332-.286a11.556,11.556,0,0,0-3.142-.4c-3.309,0-5.465,1.878-5.465,4.478,0,1.916.879,3.574,3.5,5.613l1.083.843c1.958,1.548,2.325,2.64,2.325,3.8a2.88,2.88,0,0,1-3.179,2.7,3.246,3.246,0,0,1-3.379-2.393,4.508,4.508,0,0,1-.217-1.206c0-.188-.022-.4-.239-.4-.181,0-.254.264-.283.614-.016.38-.119,1.809-.119,3.109,0,.513.075.638.453.8a8.13,8.13,0,0,0,3.451.613,6.861,6.861,0,0,0,3.773-.969,4.771,4.771,0,0,0,2.218-4.12C389.351,287.087,388.339,285.453,385.465,283.3Z" fill="#595959"/>
      <path id="パス_5" data-name="パス 5" d="M413.859,293.672a7.684,7.684,0,0,1-1.074-.069c-.618-.106-.76-.4-.822-.947-.1-.861-.1-2.468-.1-4.4v-3.558c0-3.056,0-3.618.053-4.26.048-.707.209-1,.778-1.085a3.258,3.258,0,0,1,.614-.063c.215,0,.332-.064.332-.248,0-.121-.171-.165-.415-.165-.827,0-2.164.044-2.7.044-.586,0-2-.044-2.781-.044-.347,0-.5.044-.5.165,0,.184.111.248.323.248a2.893,2.893,0,0,1,.769.088c.448.138.657.373.714,1.06.011.642.011,1.2.011,4.26v3.558c0,1.937,0,3.544-.089,4.374-.078.605-.188.872-.616.978a2.811,2.811,0,0,1-.594.063,3.013,3.013,0,0,1-1.047-.257,10.128,10.128,0,0,1-2.838-2.157c-.8-.756-4.894-5.012-5.632-5.964.641-.736,3.741-3.67,4.4-4.287a6.335,6.335,0,0,1,2.2-1.49,4.088,4.088,0,0,1,1.211-.226c.193,0,.3-.083.3-.222s-.131-.191-.349-.191c-.639,0-1.806.044-2.447.044-.563,0-1.7-.044-2.146-.044-.209,0-.336.044-.336.191,0,.116.1.158.288.222.2.04.279.18.279.393,0,.35-.44.817-1.037,1.492-.62.69-3.643,3.664-4.356,4.43h-.086v-.907c0-3.056,0-3.618.013-4.26.043-.707.22-1,.786-1.085a3.3,3.3,0,0,1,.592-.063c.169,0,.285-.083.285-.222s-.147-.191-.45-.191c-.683,0-2.177.044-2.685.044-.482,0-1.815-.044-2.908-.044-.3,0-.466.044-.466.191s.137.222.359.222a4.3,4.3,0,0,1,.82.063c.66.183.854.4.9,1.085.014.642.014,1.2.014,4.26v3.558c0,1.845,0,3.439-.086,4.282-.073.586-.193.964-.611,1.07a3.123,3.123,0,0,1-.742.069c-.253,0-.33.117-.33.211,0,.144.138.209.4.209.829,0,2.162-.065,2.632-.065.52,0,2.014.065,3.161.065.239,0,.408-.065.408-.209a.269.269,0,0,0-.285-.211,7.459,7.459,0,0,1-1.014-.069c-.52-.106-.713-.484-.764-1.047-.035-.866-.035-2.46-.035-4.3v-1.825h.086l.222.283c.443.618,4.441,5.267,5.346,6.035a4.343,4.343,0,0,0,2.692,1.308c.459.04.831.04,1.444.04h1.842c.841-.005,2.155-.064,2.613-.064.569,0,1.976.065,3.357.065.239,0,.4-.065.4-.209C414.183,293.789,414.083,293.672,413.859,293.672Z" fill="#595959"/>
      <path id="パス_6" data-name="パス 6" d="M432.9,278.872c-1.018,0-1.8.044-2.037.044-.448,0-1.557-.044-2.649-.044-.3,0-.525.019-.525.191,0,.116.074.222.327.222a4.008,4.008,0,0,1,1.1.105c.5.181.689.546.711,1.78l.213,8.947h-.09c-.31-.282-3.084-3.126-4.511-4.517-3.023-2.97-6.145-6.162-6.414-6.421-.343-.357-.634-.663-.9-.663-.2,0-.353.283-.353.686l-.181,11.933c-.031,1.751-.1,2.3-.652,2.448a4.4,4.4,0,0,1-.951.089c-.177,0-.328.093-.328.211,0,.192.2.209.486.209,1.065,0,2.056-.065,2.244-.065.378,0,1.345.065,2.7.065.279,0,.475-.04.475-.209,0-.118-.116-.211-.354-.211a3.3,3.3,0,0,1-1.087-.146c-.4-.139-.676-.618-.718-2.172l-.236-8.217h.073c.4.355,2.606,2.8,4.874,4.972,2.177,2.1,4.778,4.587,6.083,5.8a1.259,1.259,0,0,0,.857.424c.167,0,.326-.2.326-.641l.24-12.69c.022-1.138.183-1.49.749-1.653a2.409,2.409,0,0,1,.639-.063c.235,0,.363-.106.363-.222C433.378,278.891,433.19,278.872,432.9,278.872Z" fill="#595959"/>
      <path id="パス_7" data-name="パス 7" d="M458.058,289.691c-.186,0-.223.1-.3.476a4.072,4.072,0,0,1-.8,1.569c-.954,1.083-2.23,1.319-4.338,1.319-3.172,0-7.441-2.8-7.441-8.434,0-2.3.442-4.543,2.162-6.127a6.186,6.186,0,0,1,4.455-1.471c2.174,0,4.023.637,4.8,1.471a3.287,3.287,0,0,1,.927,2.177c0,.33.051.525.237.525.211,0,.257-.2.28-.549.042-.473.021-1.775.068-2.557.055-.833.128-1.114.128-1.3,0-.146-.1-.266-.361-.288-.7-.065-1.469-.277-2.368-.4a23.074,23.074,0,0,0-3.433-.241c-3.52,0-5.777.952-7.478,2.515a9.384,9.384,0,0,0,.165,13.471c2.151,1.865,4.874,2.579,8.127,2.579a13.549,13.549,0,0,0,4.253-.543.852.852,0,0,0,.619-.682,22.728,22.728,0,0,0,.512-3.146C458.269,289.86,458.233,289.691,458.058,289.691Z" fill="#595959"/>
      <path id="パス_8" data-name="パス 8" d="M471.007,290.826c-.156,0-.2.119-.232.309a2.577,2.577,0,0,1-.515,1.213c-.53.538-1.333.56-2.453.56-1.6,0-2.4-.112-2.763-.428-.457-.373-.457-1.654-.457-4.229v-3.558c0-3.056,0-3.618.048-4.26.054-.707.223-1,.786-1.085a5.41,5.41,0,0,1,.809-.063c.255,0,.376-.083.376-.222s-.141-.191-.448-.191c-.806,0-2.516.044-3.011.044-.557,0-1.892-.044-2.859-.044-.312,0-.45.044-.45.191s.11.222.354.222a3.132,3.132,0,0,1,.685.063c.665.183.855.4.907,1.085.027.642.027,1.2.027,4.26v3.558c0,1.845,0,3.439-.106,4.282-.066.586-.189.964-.615,1.07a2.963,2.963,0,0,1-.731.069c-.256,0-.332.117-.332.211,0,.144.14.209.4.209.422,0,.952-.017,1.44-.04.5,0,.947-.025,1.19-.025.855,0,1.731.025,2.774.048,1.033.039,2.241.061,3.737.061,1.089,0,1.169-.084,1.315-.533a14.655,14.655,0,0,0,.308-2.322C471.192,291.039,471.151,290.826,471.007,290.826Z" fill="#595959"/>
      <path id="パス_9" data-name="パス 9" d="M479.06,293.672a7.642,7.642,0,0,1-1.069-.069c-.618-.106-.76-.4-.82-.947-.109-.861-.109-2.468-.109-4.4v-3.558c0-3.056,0-3.618.057-4.26.052-.707.2-1,.775-1.085a3.327,3.327,0,0,1,.615-.063c.218,0,.338-.064.338-.248,0-.121-.174-.165-.426-.165-.806,0-2.153.044-2.68.044-.6,0-2.005-.044-2.789-.044-.338,0-.5.044-.5.165,0,.184.105.248.33.248a2.845,2.845,0,0,1,.76.088c.452.138.657.373.7,1.06.022.642.022,1.2.022,4.26v3.558c0,1.937,0,3.544-.093,4.374-.074.605-.182.872-.616.978a2.973,2.973,0,0,1-.737.069c-.266,0-.327.117-.327.211,0,.144.14.209.4.209.832,0,2.24-.065,2.725-.065.565,0,1.986.065,3.355.065.234,0,.4-.065.4-.209C479.389,293.789,479.3,293.672,479.06,293.672Z" fill="#595959"/>
      <path id="パス_10" data-name="パス 10" d="M498.109,278.872c-1.017,0-1.8.044-2.027.044-.455,0-1.569-.044-2.661-.044-.3,0-.515.019-.515.191,0,.116.069.222.331.222a3.829,3.829,0,0,1,1.081.105c.512.181.7.546.71,1.78l.221,8.947h-.1c-.3-.282-3.08-3.126-4.5-4.517-3.027-2.97-6.155-6.162-6.418-6.421-.348-.357-.636-.663-.9-.663-.208,0-.353.283-.353.686l-.189,11.933c-.026,1.751-.1,2.3-.637,2.448a4.57,4.57,0,0,1-.954.089c-.188,0-.329.093-.329.211,0,.192.187.209.472.209,1.07,0,2.065-.065,2.251-.065.372,0,1.345.065,2.7.065.284,0,.471-.04.471-.209,0-.118-.115-.211-.352-.211a3.3,3.3,0,0,1-1.087-.146c-.405-.139-.666-.618-.718-2.172l-.234-8.217h.069c.407.355,2.609,2.8,4.876,4.972,2.179,2.1,4.78,4.587,6.083,5.8a1.287,1.287,0,0,0,.858.424c.165,0,.327-.2.327-.641l.236-12.69c.024-1.138.184-1.49.755-1.653a2.43,2.43,0,0,1,.641-.063c.233,0,.35-.106.35-.222C498.577,278.891,498.4,278.872,498.109,278.872Z" fill="#595959"/>
      <path id="パス_11" data-name="パス 11" d="M506.46,293.672a7.731,7.731,0,0,1-1.064-.069c-.622-.106-.751-.4-.831-.947-.083-.861-.083-2.468-.083-4.4v-3.558c0-3.056,0-3.618.042-4.26.041-.707.219-1,.785-1.085a3.24,3.24,0,0,1,.613-.063c.211,0,.33-.064.33-.248,0-.121-.169-.165-.437-.165-.793,0-2.144.044-2.664.044-.592,0-2.013-.044-2.8-.044-.327,0-.483.044-.483.165,0,.184.11.248.319.248a2.909,2.909,0,0,1,.766.088c.442.138.653.373.7,1.06.023.642.023,1.2.023,4.26v3.558c0,1.937,0,3.544-.087,4.374-.072.605-.2.872-.616.978a3.057,3.057,0,0,1-.733.069c-.265,0-.331.117-.331.211,0,.144.138.209.4.209.821,0,2.242-.065,2.717-.065.566,0,1.988.065,3.363.065.239,0,.4-.065.4-.209C506.8,293.789,506.7,293.672,506.46,293.672Z" fill="#595959"/>
      <path id="パス_12" data-name="パス 12" d="M522.729,290.284c-.169,0-.216.1-.266.408a3.158,3.158,0,0,1-.7,1.342c-.835.935-1.852,1.065-3.7,1.065a6.71,6.71,0,0,1-6.482-7.055c0-1.964.38-3.9,1.926-5.234a5.606,5.606,0,0,1,3.923-1.132,5.866,5.866,0,0,1,4.02,1.187,2.817,2.817,0,0,1,.8,1.865c0,.257.043.426.213.426s.266-.215.29-.5c.022-.4.022-1.516.068-2.184.038-.7.09-.944.09-1.1,0-.13-.069-.219-.3-.242-.613-.068-1.3-.215-2.078-.332a21.791,21.791,0,0,0-3.036-.217,9.38,9.38,0,0,0-6.606,2.139,7.788,7.788,0,0,0,.174,11.46,10.7,10.7,0,0,0,7.154,2.173,12.06,12.06,0,0,0,3.75-.446c.363-.143.465-.236.549-.593a17.538,17.538,0,0,0,.452-2.678C522.965,290.472,522.859,290.284,522.729,290.284Z" fill="#595959"/>
    </g>
    <g id="グループ_2" data-name="グループ 2">
      <path id="パス_13" data-name="パス 13" d="M271.909,241.62l-.246-4.325a.94.94,0,0,0-1.087-1.008l-1.509.075a.927.927,0,0,0-.987,1.1l.384,4.438a13.189,13.189,0,0,0-4.818,2.036,16.693,16.693,0,0,0-7.19,9.148,39.863,39.863,0,0,1,1.137-10.946.9.9,0,0,0-.87-1.165l-1.536-.25a.912.912,0,0,0-1.124.893c-.71,6.051-1.117,11.339.648,16.455a1.034,1.034,0,0,0,1.235.743l.983-.1a.969.969,0,0,0,.993-1.046,16.582,16.582,0,0,1,7.1-11.983,9.146,9.146,0,0,1,3.622-1.677,38.171,38.171,0,0,1-1.064,13.414c-2.425-.918-3.622-2.908-4.292-6.045a1.049,1.049,0,0,0-2.056.378c.41,3.864,2.056,6.442,5.526,7.821a8.307,8.307,0,0,1-4.507,4.316.907.907,0,1,0,.649,1.693,12.194,12.194,0,0,0,6.689-5.436,8.271,8.271,0,0,0,3.514-.2,9.9,9.9,0,0,0,7.069-5.4,9.71,9.71,0,0,0-.686-8.86A9.424,9.424,0,0,0,271.909,241.62Zm.48,15.942a6.977,6.977,0,0,1-1.813.238,39.217,39.217,0,0,0,1.4-13.955c3.307.379,5.312,2.66,5.45,6.514A6.9,6.9,0,0,1,272.389,257.562Z" fill="#595959"/>
      <path id="パス_14" data-name="パス 14" d="M310.281,241.491c-.991-.643-2.015,1.139-1.093,1.4,3.305,2.8,4.373,6.274,5.458,12.484.151.691.5,1,1.187.858l1.4-.282a.883.883,0,0,0,.787-1.227C316.729,248.951,315.089,244.677,310.281,241.491Z" fill="#595959"/>
      <path id="パス_15" data-name="パス 15" d="M300.616,244.252c.856-2.761,1.609-5.39,1.978-6.759a.887.887,0,0,0-.736-1.227l-1.367-.308a.958.958,0,0,0-1.227.79c-.34,1.5-1.064,4.5-1.972,7.647a71.893,71.893,0,0,0-7.438,1.115.938.938,0,0,0-.831,1.2.891.891,0,0,0,1.227.793,40.244,40.244,0,0,1,6.314-1.157,101.141,101.141,0,0,1-6.617,14.971.922.922,0,0,0,.447,1.377l1.227.593a.9.9,0,0,0,1.371-.467c1.294-2.865,5.166-11.572,6.885-16.687,1.707.072,3.577.213,4.328,2.152.755,1.882.518,4.183-.025,6.485a52.046,52.046,0,0,1-1.984,5.9h-.023l-.562,1.057c-.379.571-.621.533-1.326.174-.816-.415-1.5-.722-2.014-1.035-1.056-.482-1.87,1.076-.891,1.54.58.34,1.337.722,2.249,1.146,3.18,1.548,4.1,1.241,5.428-1.484,1.978-4.1,4.264-10.619,1.746-14.917C305.455,244.867,302.435,244.252,300.616,244.252Z" fill="#595959"/>
      <path id="パス_16" data-name="パス 16" d="M340.021,250.562a49.093,49.093,0,0,0,5.459-9.653c.476-1.067-.169-1.941-1.546-2.011H327.7a.935.935,0,0,0,0,1.869H341c-3.683,9.321-8.832,15.71-17.489,20.757-.585.349-.76.739-.48,1.225.244.466.673.536,1.254.279a41.136,41.136,0,0,0,14.33-10.916,50.8,50.8,0,0,1,8.426,10.325.918.918,0,0,0,1.437.281l1.634-1.125a.938.938,0,0,0,.2-1.473A46.592,46.592,0,0,0,340.021,250.562Z" fill="#595959"/>
      <path id="パス_17" data-name="パス 17" d="M383.228,252.786h-10.7l-.87-8.6h9.975a.888.888,0,1,0,0-1.772h-10.14l-.519-5.288a.935.935,0,0,0-1.075-.957l-1.362.077c-.7.023-1.041.4-.962,1.071l.522,5.1h-8.5a.889.889,0,1,0,0,1.772h8.668l.838,8.6H358.058a.885.885,0,1,0,0,1.765h11.223l.861,8.837a.912.912,0,0,0,1.129.93l1.331-.1a.874.874,0,0,0,.93-1.083l-.835-8.58h10.531A.884.884,0,1,0,383.228,252.786Z" fill="#595959"/>
      <path id="パス_18" data-name="パス 18" d="M402.538,244.888l1.047-1.513a.926.926,0,0,0-.336-1.44,53.589,53.589,0,0,0-8.924-4.2.974.974,0,0,0-1.354.474l-.04.035a.92.92,0,0,0,.434,1.375,63.239,63.239,0,0,1,7.8,5.488A.831.831,0,0,0,402.538,244.888Z" fill="#595959"/>
      <path id="パス_19" data-name="パス 19" d="M419.111,242.3a.935.935,0,0,0-1.362.313,54.893,54.893,0,0,1-22.9,18.015.954.954,0,0,0-.564,1.369l.651,1.428a.929.929,0,0,0,1.328.549,48.779,48.779,0,0,0,23.089-20.337A.886.886,0,0,0,419.111,242.3Z" fill="#595959"/>
      <path id="パス_20" data-name="パス 20" d="M449.643,240.8l-11.967-.031a25.905,25.905,0,0,0,1.527-2.556.892.892,0,0,0-.5-1.371l-1.634-.674a.934.934,0,0,0-1.338.582,33.156,33.156,0,0,1-9.383,13.417c-.885.732-.03,2.116,1.133,1.423a26.613,26.613,0,0,0,9.01-9.137h10.154c-3.563,9.546-8.132,15.559-17.441,20.446a.909.909,0,1,0,.86,1.6c11.255-4.916,16.581-11.174,21.229-21.776C451.777,241.62,450.8,240.727,449.643,240.8Z" fill="#595959"/>
      <path id="パス_21" data-name="パス 21" d="M478.043,236.84h-1.684a.932.932,0,0,0-1.029,1.033v8.217c0,8.567-2.987,14.03-10.766,17.2-.607.27-.829.655-.67,1.169.177.476.6.649,1.258.442,9.532-3.131,13.915-9.623,13.915-18.806v-8.217A.908.908,0,0,0,478.043,236.84Z" fill="#595959"/>
      <path id="パス_22" data-name="パス 22" d="M464.756,252.308V238.793a.911.911,0,0,0-1.021-1.012h-1.479a.926.926,0,0,0-1.027,1.012v13.515a.932.932,0,0,0,1.027,1.016h1.479A.909.909,0,0,0,464.756,252.308Z" fill="#595959"/>
      <path id="パス_23" data-name="パス 23" d="M492.493,243.5h19.518a.915.915,0,0,0,1.006-1.036v-.129a.9.9,0,0,0-1.006-1.021H492.493a.923.923,0,0,0-1.031,1.021v.129A.926.926,0,0,0,492.493,243.5Z" fill="#595959"/>
      <path id="パス_24" data-name="パス 24" d="M515.095,257.8h-25.72a.917.917,0,0,0-1.024,1.018v.138a.937.937,0,0,0,1.024,1.03h25.72a.927.927,0,0,0,1.026-1.03v-.138A.926.926,0,0,0,515.095,257.8Z" fill="#595959"/>
      <path id="パス_25" data-name="パス 25" d="M532.727,250.73a.8.8,0,0,0,1.164.626l1.635-.58c.626-.214.8-.584.479-1.2a33.548,33.548,0,0,0-3.842-6.013c-.72-.876-2.471-.152-1.849,1.018A33.824,33.824,0,0,1,532.727,250.73Z" fill="#595959"/>
      <path id="パス_26" data-name="パス 26" d="M529.154,252a30.873,30.873,0,0,0-3.8-5.582c-.736-.834-2.384-.184-1.762,1.006a31.939,31.939,0,0,1,2.37,5.847.767.767,0,0,0,1.156.576l1.585-.608C529.363,252.99,529.54,252.621,529.154,252Z" fill="#595959"/>
      <path id="パス_27" data-name="パス 27" d="M544.363,245.005l-1.571-.509a.894.894,0,0,0-1.271.663c-2.389,8.883-4.976,14.176-12.548,18.508-.582.334-.766.751-.472,1.229.271.451.743.544,1.34.271,8.749-4.325,12.483-10.172,15.176-18.867A.932.932,0,0,0,544.363,245.005Z" fill="#595959"/>
      <path id="パス_28" data-name="パス 28" d="M575.852,240.8l-11.975-.031c.635-.956,1.054-1.669,1.54-2.556a.9.9,0,0,0-.505-1.371l-1.659-.674a.9.9,0,0,0-1.311.582,33.245,33.245,0,0,1-9.4,13.417c-.881.732-.038,2.116,1.133,1.423a26.957,26.957,0,0,0,9.028-9.137h10.133c-3.56,9.546-8.111,15.559-17.432,20.446-1.111.581-.27,2.075.875,1.6,11.24-4.916,16.557-11.174,21.183-21.776C577.957,241.62,577.012,240.727,575.852,240.8Z" fill="#595959"/>
    </g>
    <g id="グループ_3" data-name="グループ 3">
      <path id="パス_29" data-name="パス 29" d="M215.258,288.208c1.233-1.643,2.186-4.681,2.931-7.532A8.92,8.92,0,1,0,212.8,264.65a7.99,7.99,0,0,0-3.193,5.638v0c-.606,6.531,4.662,8.1,4.716,8.117l.205-.457a7.35,7.35,0,0,1-.219-12.121,6.683,6.683,0,0,1,5.035-1.154,6.882,6.882,0,0,1,5.446,5.268,7.442,7.442,0,0,1,.087,3,7.075,7.075,0,0,1-7.332,5.93c-.008-.209-.017-.465-.017-.776a18.365,18.365,0,0,1,.267-3.191,7.6,7.6,0,0,1,2.016-4.336,4.179,4.179,0,0,1,3.929-.713l.658.148-.4-.547a3.526,3.526,0,0,0-2.229-1.3,4.093,4.093,0,0,0-3.111,1.1c-3.17,2.573-2.965,8.639-2.831,10.437l.008.067.071.679.075.013a21.949,21.949,0,0,1-2.045,2.964c-2.2,2.677-4.824,4.311-4.377,1.687a33.973,33.973,0,0,1,1.12-3.438c.682-2.128,1.062-3.356-.353-4.184-2.182-.9-6.51,1.772-9.218,3.775-.43.244-1.332,1.275-.727.857,5.747-3.571,10.421-5.065,9.332-1.355-.488,1.675-1.281,3.3-1.732,4.955-.609,2.23,1.031,2.922,3.458,1.268a15.03,15.03,0,0,0,4.581-5.4,24.408,24.408,0,0,1-2.893,7.1,75.721,75.721,0,0,0-12.946,6.768c-1.379.865-7.576,5.4-3.092,5.281,3.708-.091,8.288-2.648,10.875-4.636a31.917,31.917,0,0,0,6.166-6.372c3.654-1.219,4.91-.624,9.559-1.7s8.175-2.784,10.157-6.586C230.795,284.531,226.434,282.626,215.258,288.208Zm-14.7,10.322c-5.238,1.759-.806-1.842.8-2.9a49.76,49.76,0,0,1,10.137-5.043A20.257,20.257,0,0,1,200.554,298.53Z" fill="#c760ad"/>
      <path id="パス_30" data-name="パス 30" d="M198.887,290.5c.782,2.462,1.327,3.931,1.347,3.959l.451-.213c-5.705-20.388-6.183-35.253-5.37-41.408,1.445-.568,7.018-1.832,15.54,4,7.086,4.843,13.795,5.709,17.807,3.728l.008,0,.018-.007c1.65-1.025,2.491-2.137,2.491-3.3a.567.567,0,0,0-.005-.094c-.07-1.834-2.17-3.2-3.428-3.854a4.847,4.847,0,0,1-2.026-2.65l-.442-1.029-.008-.016c.225-.169.446-.346.665-.539a5.7,5.7,0,0,0,5.673-1.326,4.761,4.761,0,0,0,1.361-5.129c-.668-1.7-3.08-4.568-11.731-4.8l-.561-.008-.232.465c-4.9,6.79-18.692,6.363-18.833,6.356l-.063.5c.622.146,1.24.265,1.866.361,7.757,1.22,15.353-1.171,18.261-5.9,7.554.3,9.273,2.65,9.665,3.656a2.623,2.623,0,0,1,.165.889,3.325,3.325,0,0,1-1.1,2.335,4.023,4.023,0,0,1-4.353.868l-.528-.225-.409.39c-1.982,1.8-3.883,2.583-5.655,2.314A6.632,6.632,0,0,1,215.3,246.8l-.011-.014-.465-.823-.77.531c-4.551,3.073-9.475-.088-10.022-.462l-.638-.436-.524.585a11.312,11.312,0,0,1-8.165,3.109l-1.024.327a10.152,10.152,0,0,0,1.628-5.327l-.07-.574-.577-.15c-.1-.025-13.286,12.9-24.987.407-2.855-3.047-6.227.6-6.239.588l-.409.288c.008.019,3.555-2.178,6.013.393,3.639,3.791,11.86,11.063,24.827.421-.149,1.69-6.273,12.409-18.129,13.246-7.96.561-12.388-4.5-13.5-8.451-1.59-5.69-1.978-7.829-6.051-9.732,1.995-1.642,3.267-.933,4.737-.106a5.775,5.775,0,0,0,3.438,1.058,3.477,3.477,0,0,0,2.529-1.7l.009-.015c.362-.5.626-.863,1.11-.995a1.924,1.924,0,0,1,1.984.453,3.7,3.7,0,0,0,3.113.8,5.07,5.07,0,0,0,2.139-1.056,3.065,3.065,0,0,1,2.537-.795,6.245,6.245,0,0,1,2.461,1.482,10.52,10.52,0,0,0,5.193,2.652,7.668,7.668,0,0,0,4.549-.7l.035-.01a5.338,5.338,0,0,1,2.385-.579,3.8,3.8,0,0,1,2.278,1.052l.032.023a7.622,7.622,0,0,0,5.1,1.874c6.01-.042,9.753-3.366,12.04-5.859.743-.8,1.465-1.528,2.137-2.2,7.167.831,13.412-.673,14.554-3.528.3-.741.93-2.289-1.417-3.816-4.386-2.836-11.524,3.38-13.744,5.5-.149-.015-.428-.051-.428-.051-.439-.054-.866-.11-1.319-.191-3.059-.572-6.174.794-10.863,3.524-3,1.749-4.062.215-4.837-.9a5.329,5.329,0,0,0-3.722-2.556,7.392,7.392,0,0,0-.76-.126,16.22,16.22,0,0,0-6.481.639l-.024.008-1.14.326c-1.834.582-3.163.995-5.266-1.665-2.032-2.567-5.277-.708-7.884.793l-.805.459c-2.6,1.452-3.221.824-3.518.519a2.625,2.625,0,0,1-.127-2.293c.659-2.331,2.379-5.087,5.223-5.822,2.683-.68,4.686.512,7.006,1.9l.735.434a28.464,28.464,0,0,0,5.471,2.664,72.9,72.9,0,0,0,7.6,2.052c8.947,1.832,12.929.044,17.173-2.6.861-.53,1.515-1.01,2.1-1.431a10.054,10.054,0,0,1,4.9-2.214c2.128-.411,3.528-1.319,3.553-2.323.017-.463-.28-1.316-2.361-1.832a8.914,8.914,0,0,0-2.384-.162,7.767,7.767,0,0,0-3.672,1.106,9.707,9.707,0,0,0-1.711,1.326c-1.054,1.113-1.7.8-2.324.5l-.424-.179a5.668,5.668,0,0,0-2.69-.3,5.3,5.3,0,0,0-2.38.967,2.517,2.517,0,0,1-3.343.185l-.035-.021a5.92,5.92,0,0,0-2.45-.793,4.672,4.672,0,0,0-2.185.614l-.373.173a2.615,2.615,0,0,1-3.226-.35l-.536-.368a8.408,8.408,0,0,0-5.457-1.392c-.016,0-.574.092-.574.092-2.426.4-3.157.526-4.947-.853a8.373,8.373,0,0,0-2.538-1.425c-.229-.071-.325-.186-.321-.263.005-.058.075-.109.175-.121a6.96,6.96,0,0,1,2.413.3l.55.13.023,0c1.225.271,2.194.486,2.9-.13a3.4,3.4,0,0,0,.9-2.009l.023-.11c.087-.48.3-.785,1.142-.85,2.52-.2,2.975-.744,3.5-1.625l.075-.125c.267-.438.417-.685.895-.852.908-.317,1.173,0,1.876,1.037a4.464,4.464,0,0,0,2.78,2.248,5.464,5.464,0,0,0,3.826-.86,5.231,5.231,0,0,1,3.076-.831,4.389,4.389,0,0,1,2.548,1.127,3.6,3.6,0,0,0,2.727,1.046,4.993,4.993,0,0,0,3.013-1.5l.06-.054a7.364,7.364,0,0,1,1.88-1.312,1.962,1.962,0,0,1,1.832-.027c1.039.937.647,2.4.132,3.459-.682,1.348-3.623,3.224-9.851.689-2.926-1.181-5.022-.413-7.053.333l-.017.009c-2.487.935-4.836,1.809-9.066-1.456l-.381.308c.021.055,2.516,5.315,10.048,2.792l.355-.121c1.7-.58,3.3-1.124,5.453-.246,4.437,1.811,7.53,1.48,9.491.484a5.4,5.4,0,0,0,2.406-2.291,4.305,4.305,0,0,0-.611-4.906,2.943,2.943,0,0,0-3.487-.615A5.622,5.622,0,0,0,208,217.767a6.32,6.32,0,0,1-.577.6,3.4,3.4,0,0,1-2.051,1.125c-.574.05-.895-.175-1.5-.659l-.409-.353a5.356,5.356,0,0,0-3.076-1.58A5.265,5.265,0,0,0,197,217.946l-.694.4a3.867,3.867,0,0,1-2.673.692c-.768-.154-1.19-.784-1.678-1.51l-.171-.265c-.688-1.062-1.723-2.667-3.7-1.707a4.136,4.136,0,0,0-1.519,1.677l-.1.165-.116.209c-.272.482-.434.772-2.692.68-1.934-.083-2.262,1.738-2.4,2.515l-.017.1a1.349,1.349,0,0,1-.3.784,7.14,7.14,0,0,1-1.423-.23c-.01,0-.659-.154-.659-.154a10.392,10.392,0,0,0-2.966-.429h-.018c-1.014.133-1.717.692-1.765,1.385v.058c0,.443.3,1.394,2.608,2a7.893,7.893,0,0,1,2.189,1.6c1.237,1.2,2.437.981,5.642.386a6.539,6.539,0,0,1,4.429,1.191l.958.5a3.97,3.97,0,0,0,4.338.263,3.6,3.6,0,0,1,1.762-.321,3.957,3.957,0,0,1,1.456.419l.107.05c1.378.683,3.094,1.536,5.539-.59a2.57,2.57,0,0,1,1.436-.659,3.781,3.781,0,0,1,2.287.434l.121.062c.82.461,2.065,1.156,3.672-.707a6.561,6.561,0,0,1,4.745-2.388,6.265,6.265,0,0,1,2,.253c.492.171.805.472.789.755-.021.244-.315.568-1.094.724a18.343,18.343,0,0,0-7.862,3.508,19.526,19.526,0,0,1-11.875,3.547c-4.993-.1-10.639-1.8-17.274-5.195-.618-.32-1.179-.633-1.715-.931-2.288-1.283-4.092-2.295-7.091-1.525a9.746,9.746,0,0,0-6.743,6.568c-.477,1.676-.276,3.126.559,3.978,1.109,1.145,3.025.392,5.25-.483.55-.213,1.122-.469,1.677-.718,2.233-1,4.34-1.957,5.592-.531,2.691,3.077,4.987,2.486,7.416,1.861l.34-.084c.415-.108.841-.235,1.291-.376a10.86,10.86,0,0,1,4.668-.692,3.6,3.6,0,0,1,2.915,2l.259.4c1.037,1.486,2.5,2.934,6.808,1.321a25.941,25.941,0,0,0,2.811-1.256c2.1-1.088,4.709-2.44,7.182-1.97,0,0,.355.052.52.073-.422.445-1.229,1.283-1.229,1.283l-.03.031c-3.718,4.05-6.766,5.709-10.524,5.745a6.111,6.111,0,0,1-3.885-1.661l-.4-.305-.017-.014a5.4,5.4,0,0,0-3.3-1.409,6.94,6.94,0,0,0-3.138.726l-.676.321a4.627,4.627,0,0,1-3,.672,7.239,7.239,0,0,1-3.489-2.027l-.814-.685a7.342,7.342,0,0,0-3.3-1.842,3.385,3.385,0,0,0-3,1.132c-.182.161-.353.318-.535.451a3.624,3.624,0,0,1-1.435.751,2.037,2.037,0,0,1-1.793-.519l-.258-.192a3.824,3.824,0,0,0-3.453-.981,3.166,3.166,0,0,0-1.7,1.655l-.29.465c-.465.635-.718.943-1.314,1.006a4.375,4.375,0,0,1-2.377-.839l-.413-.235c-1.688-.977-4.39-1.528-7.288,1.216l-.364.352s4.879,1.071,5.741,5.442c2.057,10.442,7.754,16.012,19.845,13.6,6.383-1.274,11.7-6.681,14.195-10.2,0,0,3.908,1.982,10.066-1.9,1.264.71,5.982,2.991,10.577.485a8.029,8.029,0,0,0,4.955,3.217,7.9,7.9,0,0,0,6.035-1.9l-.086.875c-.177,1.8.908,3.464,3.224,4.962a1.793,1.793,0,0,1,.774,1.514,1.252,1.252,0,0,1-.061.36,2.442,2.442,0,0,1-1.322,1.334c-4.3,2.213-10.075,1.031-15.833-3.228-5.492-4.073-12.891-4.468-16.472-4.1a18.383,18.383,0,0,0-2.164.344c-.07.67-.127,1.339-.177,2-.988,13.056,3.279,28.863,5.641,36.374a47.136,47.136,0,0,1-10.893-9.947,27.864,27.864,0,0,0-10.27-8.294,20.137,20.137,0,0,0-9.828-1.572c-8.6.623-15.242,6.116-15.364,6.194l.026.145a33.3,33.3,0,0,1,4.707-1.118,28.272,28.272,0,0,1,12.457.738,36.834,36.834,0,0,1,12.2,6.492c4.44,3.416,9.027,6.94,17.027,7.97ZM226,229.825a1.884,1.884,0,0,1,.951,1.435,1.458,1.458,0,0,1-.183.685c-.735,1.373-4.658,3.028-11.107,2.573C219.694,230.7,224.17,228.646,226,229.825Zm-43.13,51.524c-8.271-7.318-16.021-8.426-21.152-8.032-.092.009-.182.02-.274.026h-.01c10.611-2.671,16.67-.044,22.041,4.9.256.24.517.486.776.734,1.7,1.66,3.148,3.266,4.424,4.689,1.174,1.309,2.226,2.479,3.278,3.473A30.905,30.905,0,0,1,182.866,281.349Z" fill="#c760ad"/>
    </g>
  </g>
</svg>
